<svg width="77" height="58" viewBox="0 0 77 58" fill="none" xmlns="http://www.w3.org/2000/svg">
<path d="M70.3785 58H5.65902C2.4761 58 0.000488281 55.5244 0.000488281 52.3415V5.65854C0.000488281 2.47561 2.4761 0 5.65902 0H70.3785C73.5615 0 76.0371 2.47561 76.0371 5.65854V52.6951C76.0371 55.5244 73.2078 58 70.3785 58ZM5.65902 2.82927C4.24439 2.82927 3.18341 4.2439 3.18341 5.65854V52.6951C3.18341 54.1098 4.24439 55.1707 5.65902 55.1707H70.3785C71.7932 55.1707 72.8541 54.1098 72.8541 52.6951V5.65854C72.8541 4.2439 71.7932 3.18293 70.3785 3.18293H5.65902V2.82927Z" fill="#4D86F7"/>
<path d="M74.2683 15.5613H1.41463C0.707316 15.5613 0 14.854 0 14.1467C0 13.0857 0.707317 12.3784 1.76829 12.3784H74.6219C75.3292 12.3784 76.3902 13.0857 76.3902 14.1467C76.0366 14.854 75.3293 15.5613 74.2683 15.5613Z" fill="#4D86F7"/>
<path d="M8.13402 5.65771C7.4267 5.65771 6.36572 6.71869 6.36572 7.77967C6.36572 8.84064 7.07304 9.54796 8.13402 9.54796C9.19499 9.54796 9.90231 8.84064 9.90231 7.77967C10.256 6.71869 9.54865 5.65771 8.13402 5.65771Z" fill="#4D86F7"/>
<path d="M14.5002 5.65771C13.4393 5.65771 12.7319 6.71869 12.7319 7.77967C12.7319 8.84064 13.7929 9.54796 14.5002 9.54796C15.2075 9.54796 16.6222 8.48698 16.6222 7.77967C16.6222 6.71869 15.5612 5.65771 14.5002 5.65771Z" fill="#4D86F7"/>
<path d="M20.8659 5.65771C19.805 5.65771 19.0977 6.71869 19.0977 7.77967C19.0977 8.84064 19.805 9.54796 20.8659 9.54796C21.9269 9.54796 22.6342 8.84064 22.6342 7.77967C22.6342 6.71869 21.9269 5.65771 20.8659 5.65771Z" fill="#4D86F7"/>
<path d="M22.987 43.5002C22.6333 43.5002 22.2797 43.5002 21.926 43.1465C21.2187 42.4392 21.2187 41.3782 21.926 41.0246L28.6455 34.3051L21.926 27.5855C21.2187 26.8782 21.2187 25.8173 21.926 25.4636C22.6333 24.7563 23.6943 24.7563 24.0479 25.4636L31.8284 33.5977C32.5358 34.3051 32.5358 35.366 31.8284 35.7197L24.0479 43.1465C23.6943 43.1465 23.3406 43.5002 22.987 43.5002Z" fill="#4D86F7"/>
<path d="M53.0478 35.3646H39.2551C38.5478 35.3646 37.4868 34.6573 37.4868 33.5963C37.4868 32.889 38.1941 32.1816 39.2551 32.1816H53.0478C54.1088 32.1816 54.8161 32.889 54.8161 33.5963C54.4624 34.6573 54.1088 35.3646 53.0478 35.3646Z" fill="#4D86F7"/>
</svg>
