<svg width="63" height="60" viewBox="0 0 63 60" fill="none" xmlns="http://www.w3.org/2000/svg">
<path d="M60.0128 0H2.85761C1.28293 0 0 1.28195 0 2.85761V40.6539C0 42.2296 1.28293 43.5115 2.85761 43.5115H20.8481L15.4502 58.7269C15.2743 59.223 15.5346 59.7682 16.0297 59.943C16.1348 59.9804 16.2429 59.999 16.348 59.999C16.739 59.999 17.1064 59.7544 17.2459 59.3644L22.8697 43.5105H30.4828V57.4282C30.4828 57.9548 30.9091 58.3811 31.4357 58.3811C31.9622 58.3811 32.3885 57.9548 32.3885 57.4282V43.5115H40.0007L45.6245 59.3654C45.764 59.7544 46.1304 60 46.5224 60C46.6275 60 46.7355 59.9813 46.8397 59.944C47.3357 59.7682 47.5961 59.224 47.4202 58.7279L42.0223 43.5125H60.0128C61.5884 43.5125 62.8694 42.2306 62.8694 40.6549V2.85761C62.8694 1.28195 61.5874 0 60.0128 0ZM60.9656 40.6539C60.9656 41.1785 60.5373 41.6068 60.0128 41.6068H2.85761C2.33304 41.6068 1.90475 41.1785 1.90475 40.6539V2.85761C1.90475 2.33304 2.33304 1.90475 2.85761 1.90475H60.0128C60.5373 1.90475 60.9656 2.33304 60.9656 2.85761V40.6539Z" fill="#4052F2"/>
<path d="M31.5635 35.9073H30.7069V20.4768C30.7069 19.9503 30.2805 19.5239 29.754 19.5239C29.2275 19.5239 28.8011 19.9503 28.8011 20.4768V35.9073H25.0968V24.9454C25.0968 24.4199 24.6704 23.9926 24.1439 23.9926C23.6174 23.9926 23.191 24.4199 23.191 24.9454V35.9063H19.4876V28.5201C19.4876 27.9946 19.0613 27.5673 18.5348 27.5673C18.0082 27.5673 17.5819 27.9946 17.5819 28.5201V35.9063H13.8785V31.2029C13.8785 30.6773 13.4512 30.25 12.9246 30.25C12.3991 30.25 11.9728 30.6773 11.9728 31.2029V35.9063H8.27231V33.8847C8.27231 33.3581 7.84598 32.9318 7.31945 32.9318C6.79292 32.9318 6.36658 33.3581 6.36658 33.8847V35.9063H5.51097C4.98444 35.9063 4.55811 36.3336 4.55811 36.8592C4.55811 37.3857 4.98444 37.812 5.51097 37.812H31.5635C32.09 37.812 32.5163 37.3857 32.5163 36.8592C32.5163 36.3336 32.09 35.9073 31.5635 35.9073Z" fill="#4052F2"/>
<path d="M7.25556 28.751C7.41666 28.751 7.58071 28.7097 7.73002 28.6233L28.2304 16.8127L28.0594 17.3932C27.9111 17.8981 28.1999 18.4276 28.7038 18.5759C28.7942 18.6025 28.8846 18.6152 28.972 18.6152C29.3846 18.6152 29.7638 18.3461 29.8856 17.9315L30.7314 15.0553C30.7314 15.0543 30.7314 15.0533 30.7314 15.0523C30.7481 14.9924 30.7422 14.9295 30.7471 14.8667C30.7648 14.6712 30.7392 14.4737 30.6371 14.3008C30.5015 14.0739 30.2795 13.9118 30.0192 13.8558L27.0899 13.2222C26.5869 13.1132 26.0702 13.4383 25.9582 13.9521C25.8482 14.4659 26.1743 14.9727 26.6881 15.0837L27.2156 15.1977L6.77912 26.972C6.32332 27.2352 6.16615 27.8168 6.42941 28.2726C6.60623 28.58 6.92647 28.751 7.25556 28.751Z" fill="#4052F2"/>
<path d="M53.6848 21.5117L45.3271 17.8181V8.67454C45.3271 8.149 44.9008 7.72168 44.3742 7.72168C38.4645 7.72168 33.658 12.5302 33.658 18.438C33.658 24.3477 38.4655 29.1543 44.3742 29.1543C48.6219 29.1543 52.4677 26.6464 54.173 22.7642C54.3842 22.2848 54.1662 21.7239 53.6848 21.5117ZM44.3752 27.2505C39.5166 27.2505 35.5637 23.2986 35.5637 18.4389C35.5637 13.9025 39.0097 10.1549 43.4224 9.67849V18.4389C43.4224 18.8162 43.6444 19.158 43.9892 19.3103L51.9991 22.8506C50.446 25.552 47.5462 27.2505 44.3752 27.2505Z" fill="#4052F2"/>
<path d="M47.595 5.69824C47.0684 5.69824 46.6421 6.12556 46.6421 6.65111V16.4155C46.6421 16.7927 46.8651 17.1336 47.2089 17.2868L56.1354 21.2309C56.2611 21.2859 56.3908 21.3124 56.5195 21.3124C56.8829 21.3124 57.2317 21.1022 57.3898 20.7496C58.0018 19.3881 58.3112 17.9303 58.3112 16.4165C58.3112 10.5058 53.5037 5.69824 47.595 5.69824ZM55.992 19.0845L48.5478 15.7947V7.65505C52.9595 8.1305 56.4065 11.8781 56.4065 16.4155C56.4065 17.335 56.266 18.2289 55.992 19.0845Z" fill="#4052F2"/>
</svg>
