<svg width="62" height="62" viewBox="0 0 62 62" fill="none" xmlns="http://www.w3.org/2000/svg">
<path d="M58.9996 43.0005V41.0001C58.9983 40.6455 58.9024 40.2976 58.7219 39.9924C58.5413 39.6872 58.2826 39.4356 57.9724 39.2637C57.9875 39.1765 57.9965 39.0882 57.9994 38.9997V36.9993C57.9994 36.4687 57.7886 35.9599 57.4135 35.5848C57.0383 35.2096 56.5295 34.9989 55.999 34.9989H47.0141C47.0051 34.8218 46.9971 34.6448 46.9971 34.4588V33.9987C47.0016 30.5005 46.086 27.0626 44.3422 24.0301C42.5984 20.9975 40.0877 18.4769 37.0621 16.7211L40.1087 11.509V11.502C40.3722 11.0458 40.5112 10.5283 40.5117 10.0014C40.5122 9.47456 40.3741 8.95682 40.1114 8.5001C39.8487 8.04339 39.4706 7.66376 39.0149 7.39927C38.5592 7.13477 38.042 6.9947 37.5152 6.9931H34.9947V3.99249C34.9932 3.44214 34.8403 2.9028 34.5529 2.43347C34.2655 1.96414 33.8545 1.58291 33.3649 1.33147C32.8754 1.08003 32.3261 0.968073 31.7772 1.00785C31.2283 1.04762 30.7009 1.2376 30.2527 1.55699L27.5741 3.46738C27.404 3.58654 27.2012 3.65046 26.9935 3.65046C26.7858 3.65046 26.5831 3.58654 26.4129 3.46738L23.7363 1.55999C23.2883 1.23991 22.7609 1.04926 22.2118 1.00892C21.6627 0.968585 21.1131 1.08011 20.6231 1.33129C20.1331 1.58246 19.7217 1.96361 19.4339 2.43299C19.1461 2.90238 18.993 3.4419 18.9914 3.99249V6.9931H16.4708C15.943 6.99392 15.4247 7.13373 14.968 7.39846C14.5114 7.6632 14.1325 8.04352 13.8695 8.50118C13.6065 8.95883 13.4687 9.47768 13.4699 10.0055C13.4711 10.5334 13.6112 11.0516 13.8763 11.508L16.9529 16.7841C15.3242 17.7475 13.8421 18.9395 12.552 20.3238C8.97008 24.1581 6.98115 29.2116 6.98889 34.4588C6.94373 37.5234 5.7847 40.4668 3.72822 42.7395C2.03613 44.67 1.07241 47.1316 1.00392 49.6978C0.935427 52.2641 1.76647 54.7735 3.35317 56.7916C4.93987 58.8097 7.18233 60.2094 9.69227 60.7484C12.2022 61.2874 14.8216 60.9317 17.097 59.743C17.253 59.785 17.419 59.814 17.5771 59.854C17.6351 59.869 17.6881 59.888 17.7461 59.902C17.7726 59.9067 17.7993 59.9101 17.8261 59.912C23.8509 61.363 30.1341 61.363 36.1589 59.912C36.1861 59.9101 36.2131 59.9068 36.2399 59.902C36.2989 59.888 36.3529 59.869 36.4109 59.854C36.568 59.814 36.734 59.785 36.889 59.743C38.7315 60.7086 40.8097 61.1331 42.8833 60.9672C44.3717 60.8459 45.8186 60.4164 47.1321 59.7059C47.2746 60.0861 47.5294 60.4138 47.8626 60.6457C48.1957 60.8776 48.5916 61.0026 48.9975 61.0042H58.9996C59.5301 61.0042 60.0389 60.7935 60.4141 60.4183C60.7892 60.0432 61 59.5343 61 59.0038V57.0034C60.9987 56.6488 60.9028 56.3009 60.7223 55.9957C60.5417 55.6904 60.283 55.4389 59.9728 55.267C59.9879 55.1797 59.9969 55.0915 59.9998 55.003V53.0026C59.9969 52.914 59.9879 52.8258 59.9728 52.7385C60.283 52.5666 60.5417 52.3151 60.7223 52.0099C60.9028 51.7047 60.9987 51.3568 61 51.0022V49.0017C60.998 48.6495 60.902 48.3042 60.7219 48.0015C60.902 47.6988 60.998 47.3535 61 47.0013V45.0009C61 44.4704 60.7892 43.9616 60.4141 43.5864C60.0389 43.2113 59.5301 43.0005 58.9996 43.0005ZM58.9996 47.0013H48.9975V45.0009H58.9996V47.0013ZM58.9996 51.0022H48.9975V49.0017H58.9996V51.0022ZM57.9994 55.003H47.9973V53.0026H57.9994V55.003ZM48.9975 43.0005H46.9971V41.0001H56.9992V43.0005H48.9975ZM55.999 38.9997H45.9969V36.9993H55.999V38.9997ZM15.6077 9.49362C15.6938 9.34077 15.8192 9.21377 15.971 9.12582C16.1228 9.03788 16.2954 8.99219 16.4708 8.99352H18.9914V10.9939C18.9914 11.2592 19.0967 11.5136 19.2843 11.7012C19.4719 11.8888 19.7263 11.9941 19.9916 11.9941C20.2568 11.9941 20.5112 11.8888 20.6988 11.7012C20.8864 11.5136 20.9918 11.2592 20.9918 10.9939V3.99249C20.9933 3.80957 21.045 3.63059 21.1413 3.47502C21.2375 3.31944 21.3745 3.19323 21.5374 3.11011C21.7004 3.02698 21.883 2.99014 22.0654 3.00358C22.2478 3.01701 22.4231 3.08022 22.5721 3.18632L25.2536 5.09771C25.7621 5.45884 26.3703 5.65284 26.994 5.65284C27.6177 5.65284 28.2259 5.45884 28.7344 5.09771L31.4179 3.18432C31.567 3.07923 31.7421 3.01693 31.9241 3.00416C32.106 2.99138 32.2881 3.02863 32.4504 3.11186C32.6127 3.19509 32.7492 3.32114 32.8451 3.47636C32.9409 3.63158 32.9925 3.81006 32.9942 3.99249V10.9939C32.9942 11.2592 33.0996 11.5136 33.2872 11.7012C33.4748 11.8888 33.7292 11.9941 33.9944 11.9941C34.2597 11.9941 34.5141 11.8888 34.7017 11.7012C34.8893 11.5136 34.9947 11.2592 34.9947 10.9939V8.99352H37.5152C37.6906 8.9923 37.8631 9.03803 38.0149 9.12596C38.1667 9.2139 38.2922 9.34084 38.3783 9.49362C38.4682 9.64697 38.5155 9.82149 38.5155 9.99922C38.5155 10.177 38.4682 10.3515 38.3783 10.5048L35.2887 15.7949C35.2357 15.7709 35.1797 15.7509 35.1267 15.7269C34.9706 15.6569 34.8126 15.5939 34.6556 15.5269C34.4365 15.4358 34.2165 15.3468 33.9944 15.2638C33.8294 15.2018 33.6634 15.1448 33.4943 15.0878C33.273 15.0118 33.0499 14.9391 32.8252 14.8697C32.6602 14.8197 32.4931 14.7697 32.3251 14.7247C32.0944 14.658 31.861 14.5987 31.625 14.5467C31.4619 14.5077 31.2989 14.4686 31.1349 14.4346C30.8908 14.3826 30.6458 14.3346 30.3997 14.2946C30.2437 14.2676 30.0886 14.2396 29.9326 14.2156C29.6686 14.1766 29.4025 14.1456 29.1324 14.1156C28.9914 14.1006 28.8514 14.0816 28.7114 14.0696C28.4113 14.0436 28.1112 14.0286 27.8112 14.0155C27.7012 14.0155 27.5921 14.0025 27.4821 13.9995C27.07 13.9895 26.6569 13.9895 26.2439 14.0055C25.6307 14.0286 25.0256 14.0866 24.4265 14.1646C24.3535 14.1736 24.2794 14.1806 24.2064 14.1916C23.6373 14.2716 23.0752 14.3806 22.5181 14.5107L22.237 14.5777C21.6889 14.715 21.1481 14.8754 20.6147 15.0588C20.5267 15.0888 20.4407 15.1218 20.3526 15.1588C19.8115 15.3588 19.2754 15.5709 18.7523 15.8159C18.7363 15.8229 18.7203 15.8279 18.7043 15.8359L15.6077 10.5058C15.5176 10.3524 15.4702 10.1777 15.4702 9.99972C15.4702 9.82179 15.5176 9.64709 15.6077 9.49362ZM42.7292 58.9768C41.764 59.0497 40.7933 58.9684 39.8537 58.7357C40.7592 58.3792 41.6397 57.9622 42.4892 57.4875C42.6045 57.4233 42.7059 57.3369 42.7876 57.2333C42.8693 57.1297 42.9297 57.0109 42.9654 56.8839C43.001 56.7568 43.0111 56.624 42.9952 56.493C42.9793 56.362 42.9376 56.2355 42.8725 56.1207C42.8075 56.0059 42.7203 55.9051 42.6162 55.8241C42.512 55.7431 42.3928 55.6836 42.2655 55.6488C42.1382 55.6141 42.0053 55.6049 41.8744 55.6218C41.7436 55.6387 41.6173 55.6813 41.503 55.7471C39.8083 56.6752 38.0029 57.385 36.1299 57.8596C30.1282 59.3339 23.8588 59.3339 17.8571 57.8596C15.9838 57.3851 14.178 56.6753 12.483 55.7471C12.2524 55.6186 11.9803 55.5865 11.7261 55.6578C11.4718 55.7291 11.2561 55.898 11.1259 56.1277C10.9958 56.3574 10.9617 56.6293 11.0312 56.884C11.1007 57.1388 11.268 57.3557 11.4968 57.4875C12.3459 57.9624 13.2261 58.3794 14.1314 58.7357C13.1922 58.9672 12.2224 59.0486 11.2578 58.9768C9.59455 58.8409 8.00183 58.2454 6.65747 57.2568C5.31311 56.2681 4.27003 54.9252 3.64471 53.378C3.01939 51.8309 2.83644 50.1403 3.1163 48.4952C3.39615 46.8501 4.1278 45.3151 5.22953 44.0617C7.60795 41.4239 8.94446 38.0102 8.9893 34.4588C8.98152 29.7179 10.7773 25.1517 14.0123 21.6861C15.3862 20.2045 17.0023 18.9676 18.7913 18.0284C21.1174 16.7897 23.6952 16.0974 26.3289 16.004C29.3428 15.9057 32.3341 16.5555 35.0357 17.8953C35.0987 17.9274 35.1637 17.9534 35.2267 17.9864C38.1721 19.4964 40.6432 21.7908 42.3672 24.6163C44.0912 27.4418 45.0012 30.6887 44.9967 33.9987V34.4588C44.9967 34.7358 45.0057 35.0019 45.0217 35.2589C44.7113 35.4314 44.4526 35.6837 44.2724 35.9896C44.0921 36.2956 43.9969 36.6442 43.9965 36.9993V38.9997C43.9978 39.3543 44.0937 39.7022 44.2742 40.0074C44.4548 40.3126 44.7135 40.5642 45.0237 40.736C45.0086 40.8233 44.9996 40.9116 44.9967 41.0001V43.0005C44.9967 43.5311 45.2075 44.0399 45.5826 44.415C45.9578 44.7902 46.4666 45.0009 46.9971 45.0009V47.0013C46.9991 47.3535 47.0951 47.6988 47.2752 48.0015C47.0951 48.3042 46.9991 48.6495 46.9971 49.0017V51.0022C47 51.0907 47.009 51.1789 47.0241 51.2662C46.7139 51.4381 46.4552 51.6896 46.2746 51.9948C46.0941 52.3001 45.9982 52.6479 45.9969 53.0026V55.003C45.9982 55.3576 46.0941 55.7055 46.2746 56.0107C46.4552 56.3159 46.7139 56.5675 47.0241 56.7393C47.009 56.8266 47 56.9149 46.9971 57.0034V57.4445C45.7324 58.3185 44.2611 58.8467 42.7292 58.9768ZM48.9975 59.0038V57.0034H58.9996V59.0038H48.9975Z" fill="#F47E67" stroke="#F47E67"/>
<path d="M29.9937 33.999C29.9937 34.2643 30.0991 34.5187 30.2867 34.7063C30.4742 34.8938 30.7287 34.9992 30.9939 34.9992C31.2592 34.9992 31.5136 34.8938 31.7012 34.7063C31.8888 34.5187 31.9941 34.2643 31.9941 33.999C31.9927 32.8466 31.594 31.7299 30.8652 30.8371C30.1364 29.9443 29.1221 29.3301 27.9933 29.098V27.9978C27.9933 27.7325 27.8879 27.4781 27.7004 27.2905C27.5128 27.1029 27.2584 26.9976 26.9931 26.9976C26.7278 26.9976 26.4734 27.1029 26.2858 27.2905C26.0983 27.4781 25.9929 27.7325 25.9929 27.9978V29.098C24.8624 29.3276 23.846 29.9409 23.1159 30.8341C22.3859 31.7273 21.9871 32.8454 21.9871 33.999C21.9871 35.1526 22.3859 36.2707 23.1159 37.1639C23.846 38.0571 24.8624 38.6704 25.9929 38.9V44.8182C25.4097 44.612 24.9045 44.2307 24.5464 43.7263C24.1883 43.2219 23.9948 42.6192 23.9925 42.0006C23.9925 41.7354 23.8871 41.481 23.6995 41.2934C23.512 41.1058 23.2576 41.0004 22.9923 41.0004C22.727 41.0004 22.4726 41.1058 22.285 41.2934C22.0975 41.481 21.9921 41.7354 21.9921 42.0006C21.9935 43.1531 22.3922 44.2698 23.121 45.1625C23.8498 46.0553 24.8641 46.6695 25.9929 46.9017V48.0019C25.9929 48.2672 26.0983 48.5216 26.2858 48.7091C26.4734 48.8967 26.7278 49.0021 26.9931 49.0021C27.2584 49.0021 27.5128 48.8967 27.7004 48.7091C27.8879 48.5216 27.9933 48.2672 27.9933 48.0019V46.9017C29.1238 46.6721 30.1402 46.0587 30.8703 45.1656C31.6003 44.2724 31.9991 43.1542 31.9991 42.0006C31.9991 40.8471 31.6003 39.7289 30.8703 38.8357C30.1402 37.9425 29.1238 37.3292 27.9933 37.0996V31.1834C28.5762 31.3895 29.0812 31.7706 29.4392 32.2745C29.7973 32.7785 29.9909 33.3808 29.9937 33.999ZM23.9925 33.999C23.995 33.3806 24.1886 32.7781 24.5467 32.2739C24.9048 31.7698 25.4099 31.3885 25.9929 31.1824V36.8156C25.4099 36.6095 24.9048 36.2282 24.5467 35.7241C24.1886 35.2199 23.995 34.6174 23.9925 33.999ZM29.9937 42.0006C29.9912 42.619 29.7976 43.2215 29.4395 43.7257C29.0814 44.2299 28.5763 44.6111 27.9933 44.8172V39.1851C28.5762 39.3911 29.0812 39.7722 29.4392 40.2762C29.7973 40.7802 29.9909 41.3824 29.9937 42.0006Z" fill="#F47E67" stroke="#F47E67"/>
</svg>
