<?xml version="1.0" encoding="UTF-8"?>
<svg xmlns="http://www.w3.org/2000/svg" xmlns:xlink="http://www.w3.org/1999/xlink" width="96pt" height="96pt" viewBox="0 0 96 96" version="1.1">
<g id="surface407015">
<path style=" stroke:none;fill-rule:nonzero;fill:rgb(10.588235%,61.176471%,98.823529%);fill-opacity:1;" d="M 28 12 L 68 12 C 76.835938 12 84 19.164062 84 28 L 84 68 C 84 76.835938 76.835938 84 68 84 L 28 84 C 19.164062 84 12 76.835938 12 68 L 12 28 C 12 19.164062 19.164062 12 28 12 Z M 28 12 "/>
<path style=" stroke:none;fill-rule:nonzero;fill:rgb(98.039216%,98.039216%,98.039216%);fill-opacity:1;" d="M 46.113281 67.867188 C 45.867188 67.867188 45.621094 67.863281 45.371094 67.859375 C 38.148438 67.683594 33.410156 63.234375 31.808594 61.460938 C 31.457031 61.070312 31.46875 60.484375 31.832031 60.101562 L 35.160156 56.351562 C 35.515625 55.976562 36.089844 55.933594 36.492188 56.25 C 37.96875 57.410156 41.386719 60.359375 45.886719 60.605469 C 51.109375 60.886719 53.542969 59.402344 53.859375 57.132812 C 54.15625 54.980469 53.109375 53.160156 47.304688 51.652344 C 36.933594 48.964844 35.074219 42.914062 35.710938 37.859375 C 36.382812 32.542969 41.890625 28.304688 48.28125 28.371094 C 57.414062 28.464844 63.042969 32.542969 65.003906 34.246094 C 65.445312 34.628906 65.453125 35.296875 65.039062 35.707031 L 61.878906 39.277344 C 61.546875 39.605469 61.035156 39.667969 60.644531 39.414062 C 59.046875 38.375 55.859375 35.265625 50.171875 35.265625 C 46.671875 35.265625 44.539062 36.601562 44.316406 38.347656 C 44.011719 40.789062 45.640625 42.894531 50.628906 44.023438 C 61.683594 46.515625 63.542969 52.957031 62.367188 58.15625 C 61.289062 62.949219 55.8125 67.867188 46.113281 67.867188 Z M 46.113281 67.867188 "/>
<path style=" stroke:none;fill-rule:nonzero;fill:rgb(98.039216%,98.039216%,98.039216%);fill-opacity:1;" d="M 56.0625 33.183594 L 57.742188 25.203125 C 57.875 24.585938 57.398438 24 56.765625 24 L 50.632812 24 C 50.160156 24 49.753906 24.332031 49.65625 24.792969 L 47.96875 32.816406 Z M 56.0625 33.183594 "/>
<path style=" stroke:none;fill-rule:nonzero;fill:rgb(98.039216%,98.039216%,98.039216%);fill-opacity:1;" d="M 41.832031 62 L 39.980469 70.792969 C 39.851562 71.414062 40.324219 72 40.960938 72 L 47.09375 72 C 47.5625 72 47.972656 71.667969 48.070312 71.207031 L 50.007812 62 Z M 41.832031 62 "/>
</g>
</svg>
